# xmcd
# 
# Track frame offsets:
#   150
#   17895
#   35556
#   54386
#   69319
#   87930
#   102403
#   119784
#   134161
#   148566
#   166985
#   182938
#   198810
#   214134
#   227271
#   245746
# 
# Disc length: 3501 seconds
# 
# Revision: 0
# Processed by: cddbd v1.5.1PL2 Copyright (c) Steve Scherf et al.
# Submitted via: Synapstar 1.0 
# 
DISCID=ec0dab10
DTITLE=Various Artist - Legend Series Vol.160
DYEAR=1900
DGENRE=Country
TTITLE0=Shania Twain - From This moment On (pop mix)
TTITLE1=Shania Twain - That Don't Impress me Much
TTITLE2=Shania Twain - You Win My Love
TTITLE3=Shania Twain - No-One Needs To Know
TTITLE4=Shania Twain - God Bless The Child
TTITLE5=Shania Twain - What Made You say That
TTITLE6=Shania Twain - Love Gets Me Everytime
TTITLE7=Shania Twain - Come On Over
TTITLE8=Faith Hill - This kiss
TTITLE9=Faith Hill - Piece Of My Heart
TTITLE10=Faith Hill - It Matters To Me
TTITLE11=Faith Hill - Take Me As I Am
TTITLE12=Faith Hill - Let's Go To Vegas
TTITLE13=Faith Hill - Wild One
TTITLE14=Faith Hill - Just To Hear You say That You Love Me
TTITLE15=Faith Hill - You Give Me Love
EXTD=MediaType: Karaoke CD+G Producer: legend series
EXTT0=
EXTT1=
EXTT2=
EXTT3=
EXTT4=
EXTT5=
EXTT6=
EXTT7=
EXTT8=
EXTT9=
EXTT10=
EXTT11=
EXTT12=
EXTT13=
EXTT14=
EXTT15=
PLAYORDER=
